#!OML:ASF X:\für Bonn\!DataBase\2005_08_12_Daniel\c3d\Daniel.ASF
:FULLY-SPECIFIED
:DEGREES
106
root 36.6223 18.9406 1.63828 -9.17677 76.0506 -357.474
lowerback 15.6777 0.987849 5.34475
upperback -0.192742 2.09739 -2.65702
thorax -8.7416 0.725475 -6.41121
lowerneck 10.6196 3.47627 -3.01219
upperneck 22.4109 5.97591 -1.00422
head 5.06422 3.12097 0.294259
rclavicle 4.07509e-015 1.98785e-015
rhumerus 0.563239 29.2458 -80.3853
rradius 108.134
rwrist -11.7063
rhand -31.4342 26.55
rfingers 7.12502
rthumb -4.70241 -3.37777
lclavicle 4.07509e-015 1.98785e-015
lhumerus 5.1791 -31.2733 66.0535
lradius 109.018
lwrist 26.1962
lhand -15.0582 -11.995
lfingers 7.12502
lthumb 11.1087 17.691
rfemur -7.9786 6.58507 24.1955
rtibia 25.2121
rfoot 6.70254 -13.132
rtoes -15.2923
lfemur -14.9996 -2.54127 -16.7983
ltibia 41.0131
lfoot -0.901964 -2.96265
ltoes -24.1701
107
root 36.7524 18.7538 1.63119 -8.97048 75.7666 -356.913
lowerback 15.9088 0.970898 5.29917
upperback -0.0685202 2.08881 -2.53325
thorax -8.74311 0.730202 -6.2538
lowerneck 10.4861 3.53964 -3.2527
upperneck 22.1162 6.00649 -0.989234
head 4.9844 3.11171 0.336457
rclavicle 2.13694e-014 1.59028e-014
rhumerus -0.452971 29.8638 -80.9724
rradius 107.39
rwrist -11.8599
rhand -31.3134 26.5069
rfingers 7.12502
rthumb -4.58576 -3.42348
lclavicle 2.13694e-014 1.59028e-014
lhumerus 3.8349 -31.5279 67.0717
lradius 108.556
lwrist 25.7817
lhand -15.0969 -12.1783
lfingers 7.12502
lthumb 11.0713 17.5097
rfemur -8.52937 6.61406 24.083
rtibia 25.2482
rfoot 6.90582 -13.1788
rtoes -14.5732
lfemur -15.1227 -3.05802 -16.6863
ltibia 40.6662
lfoot -1.37399 -3.19107
ltoes -25.592
108
root 36.8831 18.5323 1.62132 -8.96823 75.4758 -356.578
lowerback 16.0978 0.951229 5.31436
upperback 0.0674926 2.08754 -2.39017
thorax -8.70533 0.7382 -6.10923
lowerneck 10.4405 3.60909 -3.47678
upperneck 21.5964 6.02723 -1.01276
head 4.8217 3.09848 0.357129
rclavicle 8.49804e-015 -1.43125e-014
rhumerus -1.33367 30.4416 -81.4633
rradius 106.477
rwrist -11.9569
rhand -31.2535 26.4616
rfingers 7.12502
rthumb -4.52795 -3.47003
lclavicle 8.49804e-015 -1.43125e-014
lhumerus 2.65301 -31.746 67.9917
lradius 107.866
lwrist 25.4728
lhand -15.2996 -12.5679
lfingers 7.12502
lthumb 10.8758 17.1305
rfemur -9.12764 6.49292 24.0338
rtibia 25.7173
rfoot 6.48618 -12.7243
rtoes -12.4948
lfemur -15.29 -3.56486 -16.5124
ltibia 40.4289
lfoot -2.00782 -3.46125
ltoes -26.7329
109
root 37.0163 18.2764 1.61013 -8.95101 75.1786 -356.246
lowerback 16.2459 0.919225 5.33427
upperback 0.193065 2.06848 -2.25078
thorax -8.65805 0.737331 -5.96595
lowerneck 10.8108 3.69804 -3.75531
upperneck 20.3106 6.02371 -1.05523
head 4.92038 3.08617 0.369285
rclavicle 1.00138e-014 6.36111e-015
rhumerus -2.22922 31.0546 -81.973
rradius 105.434
rwrist -11.8974
rhand -31.1931 26.3266
rfingers 7.12502
rthumb -4.46956 -3.60622
lclavicle 1.00138e-014 6.36111e-015
lhumerus 1.48764 -31.9615 68.8761
lradius 107.018
lwrist 25.2781
lhand -15.6276 -13.1549
lfingers 7.12502
lthumb 10.5594 16.5598
rfemur -9.87352 6.16675 24.0134
rtibia 26.583
rfoot 5.73047 -11.7321
rtoes -10.5853
lfemur -15.5296 -4.01847 -16.3417
ltibia 40.3667
lfoot -2.69124 -3.89971
ltoes -27.537
110
root 37.1478 18.0095 1.59803 -9.01718 74.884 -356.004
lowerback 16.3629 0.882042 5.37859
upperback 0.355698 2.04678 -2.10103
thorax -8.55253 0.738061 -5.82209
lowerneck 10.6277 3.76429 -4.00733
upperneck 19.7062 6.03226 -1.11078
head 4.71138 3.06213 0.384653
rclavicle -3.23025e-015 8.54774e-015
rhumerus -3.01466 31.6775 -82.4157
rradius 104.14
rwrist -11.593
rhand -31.2675 26.2789
rfingers 7.12502
rthumb -4.54141 -3.65239
lclavicle -3.23025e-015 8.54774e-015
lhumerus 0.378952 -32.18 69.7919
lradius 106.027
lwrist 25.1071
lhand -16.0063 -13.8157
lfingers 7.12502
lthumb 10.1941 15.9173
rfemur -10.7828 5.70935 24.0299
rtibia 27.9303
rfoot 4.55847 -10.3326
rtoes -9.02099
lfemur -15.7989 -4.62804 -16.125
ltibia 40.485
lfoot -3.55623 -4.43034
ltoes -28.3474
111
root 37.2774 17.7447 1.58537 -9.25638 74.5945 -355.933
lowerback 16.5277 0.831464 5.45232
upperback 0.494891 2.0174 -1.92933
thorax -8.50031 0.73129 -5.6726
lowerneck 10.4206 3.81536 -4.19449
upperneck 19.0642 6.03654 -1.25966
head 4.50062 3.03832 0.357866
rclavicle -2.1829e-014 3.49861e-014
rhumerus -3.87262 32.2106 -82.9416
rradius 102.892
rwrist -11.0415
rhand -31.1342 26.0116
rfingers 7.12502
rthumb -4.41271 -3.92248
lclavicle -2.1829e-014 3.49861e-014
lhumerus -0.824802 -32.3145 70.8458
lradius 104.949
lwrist 24.8445
lhand -16.3519 -14.5254
lfingers 7.12502
lthumb 9.86067 15.2237
rfemur -11.7702 5.27622 24.0959
rtibia 29.7491
rfoot 2.97121 -8.78222
rtoes -7.24663
lfemur -16.1529 -5.39187 -15.8408
ltibia 40.8808
lfoot -4.66506 -5.01811
ltoes -27.2836
112
root 37.4038 17.4855 1.57272 -9.52509 74.3073 -355.904
lowerback 16.7183 0.77964 5.54771
upperback 0.622954 1.99118 -1.77331
thorax -8.47288 0.723562 -5.55506
lowerneck 10.117 3.83193 -4.28431
upperneck 18.4139 6.0119 -1.47152
head 4.31201 3.00383 0.296825
rclavicle 3.71479e-014 -1.40143e-014
rhumerus -4.72942 32.685 -83.5227
rradius 101.419
rwrist -10.2306
rhand -31.0125 25.8583
rfingers 7.12502
rthumb -4.29525 -4.07819
lclavicle 3.71479e-014 -1.40143e-014
lhumerus -2.20067 -32.362 72.0754
lradius 103.952
lwrist 24.494
lhand -16.6004 -15.0188
lfingers 7.12502
lthumb 9.62088 14.7415
rfemur -12.8641 4.8257 24.1742
rtibia 32.0379
rfoot 0.922036 -7.20913
rtoes -5.96881
lfemur -16.6219 -6.00896 -15.5081
ltibia 41.5728
lfoot -5.62627 -6.07885
ltoes -24.7041
113
root 37.5264 17.2109 1.56099 -9.98711 74.0691 -356.071
lowerback 16.9601 0.709666 5.65993
upperback 0.725959 1.94919 -1.60191
thorax -8.50348 0.704762 -5.42965
lowerneck 9.78822 3.81735 -4.29915
upperneck 17.7408 5.96457 -1.79173
head 4.12855 2.96049 0.188557
rclavicle -2.87989e-014 7.95139e-016
rhumerus -5.65483 33.1486 -84.2079
rradius 99.6121
rwrist -9.16276
rhand -30.8821 25.8935
rfingers 7.12502
rthumb -4.16931 -4.04547
lclavicle -2.87989e-014 7.95139e-016
lhumerus -4.01402 -32.2939 73.7396
lradius 103.05
lwrist 23.757
lhand -16.5961 -15.3778
lfingers 7.12502
lthumb 9.62504 14.3823
rfemur -13.9948 4.55042 24.3363
rtibia 34.6699
rfoot -1.66004 -5.83871
rtoes -5.21322
lfemur -17.2296 -6.20499 -15.1148
ltibia 42.6447
lfoot -6.64293 -7.79115
ltoes -21.9211
114
root 37.6399 16.9427 1.551 -10.576 73.8511 -356.373
lowerback 17.222 0.630075 5.79397
upperback 0.836498 1.90048 -1.43824
thorax -8.53664 0.682081 -5.32394
lowerneck 9.39419 3.74502 -4.13982
upperneck 17.0315 5.87046 -2.2862
head 3.95737 2.89889 -0.00386304
rclavicle 3.34207e-014 -1.1778e-014
rhumerus -6.7734 33.4807 -85.0946
rradius 97.8081
rwrist -7.88395
rhand -30.5888 26.0428
rfingers 7.12502
rthumb -3.88602 -3.90148
lclavicle 3.34207e-014 -1.1778e-014
lhumerus -6.10816 -32.0968 75.6919
lradius 102.093
lwrist 22.6203
lhand -16.4226 -15.5816
lfingers 7.12502
lthumb 9.79248 14.1707
rfemur -15.1993 4.33531 24.5545
rtibia 37.5481
rfoot -4.15657 -4.63983
rtoes -4.64715
lfemur -17.9402 -6.1031 -14.7076
ltibia 44.0727
lfoot -7.8737 -9.764
ltoes -19.66
115
root 37.7424 16.7046 1.54519 -11.2614 73.6338 -356.751
lowerback 17.5271 0.537305 5.88
upperback 0.95794 1.83132 -1.24792
thorax -8.5865 0.651987 -5.15768
lowerneck 8.94194 3.66925 -3.9343
upperneck 16.2965 5.78527 -2.88752
head 3.79514 2.84127 -0.235968
rclavicle -6.86335e-014 -3.2054e-015
rhumerus -8.08032 33.763 -86.2049
rradius 95.977
rwrist -6.43274
rhand -30.1116 26.1981
rfingers 7.12502
rthumb -3.4252 -3.75412
lclavicle -6.86335e-014 -3.2054e-015
lhumerus -8.26755 -31.6825 77.7267
lradius 101.037
lwrist 21.4029
lhand -16.0477 -15.6249
lfingers 7.12502
lthumb 10.1542 14.1101
rfemur -16.3955 4.22671 24.8407
rtibia 40.4998
rfoot -6.69781 -3.62166
rtoes -4.94356
lfemur -18.7473 -5.96129 -14.3325
ltibia 45.831
lfoot -9.04301 -11.6353
ltoes -16.4855
116
root 37.8341 16.5067 1.54169 -12.1224 73.4353 -357.333
lowerback 17.8672 0.455732 6.03934
upperback 1.04238 1.79454 -1.06968
thorax -8.68915 0.6311 -5.05603
lowerneck 8.46246 3.52424 -3.59788
upperneck 15.6101 5.62579 -3.55957
head 3.66389 2.7524 -0.510476
rclavicle 6.5102e-015 1.68967e-015
rhumerus -9.638 33.8605 -87.4833
rradius 94.1174
rwrist -5.0411
rhand -29.4982 26.36
rfingers 7.12502
rthumb -2.83282 -3.60091
lclavicle 6.5102e-015 1.68967e-015
lhumerus -10.3912 -31.2762 79.7862
lradius 99.7366
lwrist 19.9209
lhand -15.4908 -15.5198
lfingers 7.12502
lthumb 10.6913 14.1882
rfemur -17.578 4.18122 25.206
rtibia 43.3983
rfoot -9.16138 -2.93063
rtoes -5.91994
lfemur -19.6631 -5.78344 -13.9419
ltibia 47.8372
lfoot -10.1991 -13.3856
ltoes -12.4263
117
root 37.9213 16.3335 1.54106 -12.9891 73.2153 -357.886
lowerback 18.2295 0.370949 6.16037
upperback 1.14446 1.74858 -0.898499
thorax -8.78635 0.608289 -4.93764
lowerneck 7.9827 3.38545 -3.19155
upperneck 14.8857 5.4721 -4.25866
head 3.52372 2.67008 -0.804858
rclavicle -2.7805e-014 2.48481e-015
rhumerus -11.1562 33.8625 -88.8158
rradius 92.0342
rwrist -3.83369
rhand -28.7426 26.5563
rfingers 7.12502
rthumb -2.10312 -3.41312
lclavicle -2.7805e-014 2.48481e-015
lhumerus -12.4704 -30.732 81.7892
lradius 98.2095
lwrist 18.3222
lhand -14.8161 -15.2601
lfingers 7.12502
lthumb 11.3421 14.4132
rfemur -18.6514 4.25089 25.5664
rtibia 46.1883
rfoot -11.3977 -2.56988
rtoes -6.62895
lfemur -20.543 -5.41675 -13.5829
ltibia 50.006
lfoot -11.4241 -15.0547
ltoes -8.00017
